<?xml version="1.0" encoding="UTF-8" standalone="no"?>
<svg width="50px" height="32px" viewBox="0 0 50 32" version="1.1" xmlns="http://www.w3.org/2000/svg" xmlns:xlink="http://www.w3.org/1999/xlink">
    <!-- Generator: Sketch 49.3 (51167) - http://www.bohemiancoding.com/sketch -->
    <title>Track icon / Example 1</title>
    <desc>Created with Sketch.</desc>
    <defs></defs>
    <g id="event-tracker---live-session" stroke="none" stroke-width="1" fill="none" fill-rule="evenodd">
        <g id="1024-race-on-tracker" transform="translate(-33.000000, -209.000000)" fill="#FFFFFF">
            <g id="1024-race-on-slim-tracker" transform="translate(0.000000, 142.000000)">
                <g id="race-name" transform="translate(33.000000, 54.000000)">
                    <g id="Track-icon-/-Australia" transform="translate(0.000000, 10.000000)">
                        <g id="Track-icon" transform="translate(0.937500, 3.166667)">
                            <path d="M42.5203334,25.1539777 L42.3279383,25.4601467 C41.811056,25.2268751 41.3027883,24.9790239 40.7916491,24.7282569 C40.1570325,24.4162561 39.5224158,24.1071711 38.8849276,23.8243292 C38.2244668,23.5356555 37.4922168,23.5181602 36.8748296,23.7864226 C36.1368364,24.0955075 35.5711374,24.7282569 35.3586414,25.4718103 C35.2236776,25.9412695 35.2236776,26.3582426 35.2236776,26.7693839 L35.1920904,27.0959642 C35.1920904,27.1105437 35.1892188,27.1280391 35.1863472,27.1455345 C34.9910806,27.1222073 34.7958139,27.0930483 34.6005473,27.0609735 C33.6529296,26.9122628 32.705312,26.740225 31.7576944,26.571103 L20.7682014,24.6087052 C20.2369612,24.5153965 19.7028495,24.4250037 19.119921,24.3171156 C19.013673,23.8913948 18.8298926,23.4860853 18.574323,23.1186825 C18.2096338,22.5967371 17.7214671,22.1214461 17.170126,21.7452956 C16.6561152,21.3895563 16.1334897,21.229182 15.685525,21.0921349 C15.4069829,21.0075739 15.1112113,20.9638355 14.7178064,20.9200971 L14.0056574,20.8471997 C13.7472162,20.8267884 13.4887751,20.8063771 13.2303339,20.7597228 C12.2396427,20.5818532 11.2575663,20.363161 10.2754898,20.1444688 L9.72702022,20.0249171 C9.58631336,19.9899263 9.43986336,19.9578515 9.30202807,19.9082812 C8.37451142,19.5758691 7.45560947,19.2230457 6.54532224,18.8643906 C6.29836734,18.768166 6.05141244,18.6661097 5.81307225,18.5494738 C6.03131146,18.0654351 6.18924773,17.5055832 6.26390851,16.922404 C6.34431243,16.2896546 6.32133989,15.7035596 6.19786244,15.1874461 C6.04279773,14.5430331 5.72979676,14.0560785 5.52017225,13.7324141 C5.30193304,13.3912543 5.05210657,13.064674 4.80228011,12.7410095 L4.16766345,11.9070634 C4.35718698,11.1780894 4.57829776,10.4461996 4.84822521,9.74346872 C4.93437226,9.51894474 5.12389579,9.22443928 5.39956637,8.7987185 C5.53165853,8.5916899 5.68385166,8.39632489 5.8360448,8.20095987 C6.15766048,7.78107089 6.47640459,7.35535011 6.72910262,6.89463858 C6.97031439,6.45142243 7.16558105,5.97904732 7.35510457,5.50667221 C7.71979378,5.50084042 8.05863888,5.46293378 8.36876828,5.39586818 C8.8425771,5.29964362 9.31351435,5.13926935 9.77296532,4.92640896 C10.0572506,4.79227776 10.3271781,4.6260717 10.5942339,4.45694975 C10.7062251,4.38405236 10.8124731,4.30240728 10.9302075,4.25575294 C11.0163545,4.22076219 11.286282,4.18868734 11.4585761,4.16827607 C11.6567143,4.13911711 11.8577241,4.12745353 12.0616055,4.13911711 C12.2252849,4.1507807 12.3918359,4.18285555 12.5469006,4.22950988 C12.7450388,4.29074369 12.816828,4.31990265 12.796727,4.31407086 C13.2131045,4.62023991 15.0164495,6.3347866 16.4062887,7.66735095 C16.3689583,7.77815499 16.331628,7.89187492 16.2971691,8.01725844 C15.9554525,9.31191615 16.4493623,10.8048548 16.9202995,11.8254183 C17.4687691,13.0121878 18.0574407,14.1960415 18.7121583,15.327409 C19.0510034,15.9105882 19.4788671,16.4733561 19.9871348,17.006965 C20.4322279,17.4705924 20.9404955,17.8817337 21.5607543,18.3657724 C21.8306818,18.5757169 22.1379396,18.7623342 22.488271,18.9285403 L22.7553269,19.0597556 C23.306668,19.328018 23.8608808,19.5933645 24.4380661,19.7858136 C25.0008935,19.9753468 25.5981798,20.0744873 26.2528974,20.1736278 C27.0138631,20.2902636 27.7777003,20.389404 28.5472807,20.4331425 L30.3506258,20.5381147 C30.9967287,20.558526 31.6744189,20.3485815 32.2056591,19.9082812 C32.4382561,19.7100003 32.6019355,19.4971399 32.685211,19.3688405 L33.4318188,18.6719415 L33.437562,18.6719415 C34.988209,18.7827455 36.4182502,18.8906336 37.9660256,19.1093258 C38.3422011,19.1618119 38.7068903,19.2609524 39.0198913,19.4009154 C39.3271491,19.5379625 39.6832236,19.7916454 40.0191972,20.0453283 C41.3200177,21.0221534 42.5949942,22.0485487 43.8642275,23.0720281 C43.4277491,23.7601795 42.9970138,24.4308355 42.5203334,25.1539777 Z M45.2196079,22.1185302 C43.8125393,20.9813309 42.4025991,19.8441315 40.9610717,18.7565024 C40.4843913,18.3978473 40.0766285,18.1179213 39.6487648,17.9313039 C39.2065433,17.7359389 38.6982756,17.59306 38.1785217,17.5201626 C36.6049021,17.2985546 35.1490168,17.1877505 33.5466816,17.0740306 C33.437562,17.0652829 33.3284424,17.0477875 33.2221943,17.0302922 C33.0987169,17.0127968 32.998212,17.0011332 32.9005787,17.0011332 C32.7656149,17.1206849 32.5416326,17.3189658 32.4009257,17.4560129 C32.265962,17.5872282 32.1367414,17.7038641 32.0075208,17.8234158 C31.8610708,17.9546311 31.7146208,18.0858464 31.5710424,18.2345571 C31.5423267,18.2666319 31.5078679,18.3103704 31.4705375,18.3570247 C31.3815189,18.4765764 31.2953718,18.5902964 31.1977385,18.6719415 C30.9794993,18.852727 30.695214,18.9664469 30.4367728,18.937288 L28.6334277,18.8323157 C27.8782052,18.7885773 27.1258542,18.683605 26.4854944,18.5873805 C25.9312817,18.5028195 25.4258856,18.4270062 24.9319758,18.2637161 C24.4093504,18.0887623 23.9154406,17.846743 23.4416318,17.6163872 L23.1688327,17.482256 C22.9132631,17.3597884 22.7007671,17.231489 22.5198582,17.091526 C21.9742602,16.6658052 21.5234239,16.3100659 21.1214043,15.8901769 C20.6992838,15.4498767 20.3489524,14.9862492 20.0732818,14.5109582 C19.5161975,13.5487126 18.9677279,12.4785789 18.3503407,11.1430987 C18.0545691,10.5045175 17.5922466,9.30025256 17.821972,8.43131564 C17.9626789,7.90353851 18.2153769,7.68484633 18.3847995,7.54196744 C18.4250014,7.50697669 18.4565887,7.47781773 18.4795612,7.45157467 C16.8743544,5.90614993 14.2124103,3.34890937 13.695528,2.99317009 C13.4916466,2.8532071 13.215976,2.75989843 13.0006084,2.69283283 C12.7364241,2.61410365 12.4492672,2.55870163 12.1707251,2.54120625 C11.9007976,2.52371088 11.5906682,2.53537446 11.2575663,2.576197 C10.9359506,2.61701954 10.6114633,2.65784208 10.3444075,2.76281433 C10.1376545,2.8502912 9.94525943,2.97567472 9.75286434,3.09814234 C9.54323983,3.23227354 9.33074376,3.36348885 9.10963298,3.4684611 C8.76217318,3.63175126 8.40897024,3.75130298 8.05576731,3.82420037 C7.75425261,3.88835008 7.42115065,3.92042493 7.03061733,3.90001366 C6.89852517,3.89418187 6.76643302,3.8737706 6.63146929,3.85044344 C6.55393694,3.83586396 6.44481734,3.81836858 6.38738596,3.81836858 L6.36728498,3.81836858 C6.17776146,4.17993965 6.03992617,4.53276304 5.89921931,4.88267053 C5.73266833,5.30255951 5.56324578,5.7224485 5.34787814,6.11317853 C5.12676736,6.51557214 4.85396834,6.87131142 4.5926556,7.21538711 C4.41174678,7.44574288 4.23370953,7.67609864 4.07577326,7.92103388 C3.75702915,8.41673616 3.52156052,8.77830723 3.37798209,9.16028957 C3.07072426,9.95341321 2.79792524,10.8485932 2.51938309,11.9799607 C2.49353897,12.0878489 2.49353897,12.2336437 2.51938309,12.3852703 C2.73187916,12.6477009 2.86684289,12.8255705 3.00467818,13.0034401 L3.56176248,13.7324141 C3.78287326,14.0181719 4.00398404,14.3068455 4.19925071,14.6100987 C4.36580168,14.8696134 4.57255462,15.1903619 4.66157325,15.5606807 C4.74197717,15.8930928 4.75346344,16.280907 4.69890364,16.7153754 C4.64434384,17.1381803 4.53235266,17.5405739 4.37728796,17.8788178 C4.26242522,18.126669 4.10448894,18.3278658 3.96091051,18.5057354 C3.90347914,18.5786328 3.84604777,18.6515302 3.79148797,18.7273435 L3.65652425,18.9022972 C3.59334974,18.9868582 3.5330468,19.0626715 3.50720268,19.1239053 C3.88337816,19.4009154 4.31124188,19.6050281 4.7391056,19.8091408 L5.08082226,19.9753468 C5.37085069,20.1153098 5.67236539,20.2406934 5.97100852,20.3573292 C6.90139674,20.7218162 7.83465653,21.0833872 8.77653102,21.4216311 C8.97466925,21.4916126 9.18142219,21.5440988 9.38817513,21.5907531 L9.93664473,21.7103048 C10.9388222,21.9348288 11.9467427,22.1593528 12.9546633,22.3401383 C13.2590496,22.3926244 13.5663074,22.4188675 13.8706937,22.4451105 C14.0889329,22.4655218 14.3071721,22.4830172 14.5225397,22.5121761 C14.8441554,22.5471669 15.0451652,22.5734099 15.2346888,22.628812 C15.6108642,22.7454478 15.9669387,22.8533359 16.2856829,23.0720281 C16.6762162,23.3402905 17.0351623,23.6872821 17.2849887,24.0459373 C17.549173,24.4250037 17.6726505,24.8682199 17.6353201,25.3347632 C17.6152191,25.620521 17.6582926,25.7138297 17.6582926,25.7138297 C18.6920573,25.8742039 19.5966014,26.0316623 20.5011455,26.1891207 L22.1149671,26.4777943 C24.9233611,26.9793284 27.7346268,27.4837784 30.5458924,27.9823965 L31.4820238,28.1515185 C32.4411277,28.3235563 33.39736,28.4955942 34.3593355,28.6472208 C34.8475021,28.7230341 35.3442835,28.7900997 35.8353217,28.8163427 C36.0248453,28.8192586 36.0851482,28.8017632 36.1081208,28.7930155 L36.432608,28.4926783 C36.5101404,28.4343604 36.5876727,28.3789584 36.6221315,28.3381358 C36.7025355,27.9474058 36.7312511,27.5945824 36.76571,27.2446749 L36.7944256,26.9268423 C36.8030404,26.8364495 36.8030404,26.7373091 36.8030404,26.6410845 C36.8030404,26.4194764 36.8030404,26.1687094 36.8777011,25.9179424 C36.9695913,25.5855302 37.2596198,25.3580904 37.4807305,25.2676976 C37.6989697,25.1685572 37.9918697,25.1773048 38.2531825,25.2968566 C38.8734413,25.5709508 39.4908285,25.871288 40.1082158,26.1745412 C40.8289795,26.5273646 41.5526148,26.8801879 42.2877363,27.1892729 C42.3968559,27.2330113 42.5433059,27.2475908 42.6466824,27.2300954 C42.8649216,27.1892729 43.0601883,27.1076278 43.15495,27.0201509 C43.3301157,26.8597767 43.4794373,26.6148414 43.6373736,26.3582426 L43.8355118,26.0462418 C44.5849912,24.9061265 45.2282226,23.8884789 45.9375,22.7454478 C45.8341235,22.6346438 45.7135177,22.5209238 45.5986549,22.4246993 L45.2196079,22.1185302 Z" id="Fill-1"></path>
                            <path d="M46.307529,23.2911119 C45.5618984,24.5182887 44.8950515,25.5888048 44.1100292,26.7956738 L43.9383935,27.0770831 C43.7583166,27.3758992 43.5529165,27.71243 43.2659191,27.9793337 C42.947971,28.2781499 42.5202886,28.4116017 42.216409,28.4696243 C41.8956471,28.5305479 41.5411209,28.4928333 41.2344276,28.3622826 C40.4916108,28.0489608 39.7628624,27.6863199 39.0341141,27.3236789 C38.4966974,27.0538741 37.9564669,26.7869704 37.4134228,26.5403745 C37.4106091,26.6041993 37.4106091,26.6767275 37.4106091,26.7463546 C37.4106091,26.8798065 37.4077954,27.0132583 37.3965406,27.1409079 L37.3684036,27.4513285 C37.3346392,27.8342774 37.2980611,28.2172262 37.233346,28.5914716 C37.1939542,28.8177596 37.0954747,29.032443 36.9576034,29.1949061 C36.8366143,29.3370614 36.698743,29.4386008 36.5777539,29.5285358 L36.4511374,29.6271741 C36.3217071,29.760626 36.1979043,29.8911767 36.0065727,29.966606 C35.834937,30.0362331 35.6323506,30.0710466 35.4044409,30.0710466 C35.3622354,30.0710466 35.3228436,30.0710466 35.2806381,30.0681455 C34.7601036,30.0391342 34.2339416,29.9695071 33.7190345,29.8853744 C32.7680039,29.7345158 31.8226006,29.5633493 30.8771974,29.3892817 L29.9599311,29.2210163 C27.2053187,28.7249235 24.4507062,28.2230284 21.6960938,27.7211334 L20.1204217,27.439724 C19.225665,27.280162 18.3337221,27.1206 17.4445928,26.9436313 C17.264516,26.9204222 16.9606364,26.8856087 16.6961486,26.6012982 C16.4429156,26.3314934 16.3416224,25.9224344 16.3838279,25.3538134 C16.3978964,25.1652402 16.3500635,24.9882714 16.2431429,24.8345116 C16.0743209,24.5879158 15.8267152,24.3471222 15.5509726,24.1556478 C15.3821506,24.0367016 15.1289176,23.9583712 14.8869394,23.8829418 C14.7096763,23.8278204 14.5774324,23.8162159 14.4480022,23.8017103 C14.1187993,23.7610945 13.9190265,23.7436877 13.7192538,23.726281 C13.3872372,23.6972697 13.0524069,23.6653573 12.7203903,23.6044336 C11.718713,23.4245637 10.7198495,23.1982758 9.72098592,22.9719878 L9.18356919,22.8530416 C8.93596357,22.7950191 8.68554426,22.7311943 8.44637975,22.6441604 C7.5178587,22.3047285 6.58933765,21.9449887 5.666444,21.5765456 C5.34568218,21.4459948 5.02773406,21.3096418 4.71541335,21.1558821 L4.38902413,20.9963201 C3.93883211,20.7787355 3.47457158,20.5553487 3.04688916,20.2739394 C2.79646984,20.1085751 2.59669713,19.8300669 2.52354093,19.5428552 C2.46445323,19.3049628 2.50665873,19.0496636 2.65015744,18.7508475 C2.72894104,18.5825821 2.83304795,18.4462291 2.92590005,18.3272829 L3.02437956,18.1967321 C3.08909466,18.1009949 3.15943716,18.01106 3.23259337,17.9182239 C3.33951397,17.7818709 3.44080718,17.6542213 3.49426748,17.5352751 C3.59837439,17.306086 3.67434429,17.0217755 3.71092239,16.7200583 C3.7475005,16.4328467 3.7446868,16.1833497 3.69685389,15.9947764 C3.65746209,15.8178077 3.51959078,15.6031242 3.39860168,15.4116498 C3.22415227,15.1360427 3.02437956,14.8778424 2.82742055,14.6167409 L2.28437642,13.8914591 C2.13806401,13.7028858 1.9945653,13.5114114 1.85950769,13.3170358 C1.74977339,13.1661772 1.62034318,12.9921096 1.58095138,12.7542171 C1.54718698,12.5424348 1.52186368,12.2146074 1.60064728,11.8780766 C1.884831,10.7002189 2.16620101,9.76315477 2.48414913,8.93053121 C2.66985334,8.43733955 2.94278225,8.00797269 3.20727007,7.59311147 C3.44924828,7.21306378 3.64057989,6.95776457 3.8347252,6.70246536 C4.06826231,6.39494586 4.29898573,6.09322861 4.48187624,5.75669783 C4.67039415,5.40856254 4.81389285,5.0343171 4.96020526,4.6629728 C5.11495877,4.2713206 5.26971228,3.88256952 5.45823019,3.52282973 C5.6298659,3.1921012 5.97032362,2.93680199 6.30234023,2.89038395 C6.52462254,2.85557042 6.73002266,2.89328508 6.91572687,2.92519748 C7.04797077,2.9484065 7.18302838,2.96581326 7.30683119,2.96291214 C7.5262998,2.96291214 7.72044511,2.94260424 7.88926712,2.90779072 C8.14812753,2.8526693 8.42105645,2.75983322 8.67710316,2.63508474 C8.85155257,2.55385317 9.01756088,2.44361033 9.18075549,2.33916975 C9.4283611,2.17960774 9.67596671,2.02004573 9.94326823,1.90980289 C10.34,1.74733975 10.7508002,1.69511946 11.1137675,1.64870142 C11.5076855,1.59648113 11.8819076,1.58487662 12.2308065,1.60808564 C12.5909601,1.63419579 12.9454863,1.70092172 13.285944,1.80826343 C13.5729414,1.89529725 13.9443498,2.02584799 14.2735528,2.25503705 C14.8278517,2.640887 16.9071761,4.6629728 19.1778321,6.87943413 C19.3044486,7.00128148 19.6308379,7.31750437 19.5014076,7.76137686 C19.3804185,8.2632719 19.1299992,8.48375759 18.9668046,8.62591283 C18.8542566,8.72455116 18.8204922,8.75356243 18.775473,8.92472895 C18.6854346,9.27576537 18.8655114,10.0445641 19.225665,10.8336708 C19.8137284,12.1275736 20.3342629,13.160375 20.8632385,14.0858346 C21.0883345,14.4774868 21.3781456,14.869139 21.7298582,15.2404833 C22.0646885,15.597322 22.4754887,15.9251494 22.8722204,16.2413723 C23.0888753,16.4096377 23.2267466,16.4937703 23.4068235,16.5808042 L23.6825661,16.7171572 C24.1355718,16.9434451 24.5632542,17.1552274 25.0050051,17.306086 C25.3961095,17.4395379 25.8237919,17.5033627 26.2767976,17.5729897 C26.9436445,17.6745292 27.6498833,17.7760687 28.3420535,17.8166844 L30.1146846,17.9182239 C30.092175,17.9008171 30.1315668,17.8456957 30.1737723,17.7905743 C30.2441148,17.6977382 30.3144573,17.6078033 30.3651039,17.555583 C30.5198574,17.396021 30.6774246,17.2509646 30.8349919,17.1059082 C30.9531673,16.9985665 31.0713427,16.8883237 31.1923318,16.7693774 C31.349899,16.6156177 31.5946909,16.395132 31.7522581,16.258779 C31.9295212,16.1050193 32.165872,16.0092821 32.3994091,15.9918753 C32.5963681,15.9860731 32.7820724,16.0092821 32.9424533,16.0353922 C33.0212369,16.0469967 33.0972068,16.0586012 33.1759904,16.0644035 C34.765731,16.1804486 36.2119728,16.2935926 37.7876449,16.5198805 C38.3954042,16.6069143 38.9947223,16.7751797 39.5236979,17.0130722 C40.0695557,17.2567669 40.5703944,17.6165067 41.0290275,17.9675431 C42.4527598,19.0554658 43.8455414,20.19851 45.2355092,21.3386531 L45.6041039,21.6432715 C45.8798466,21.8695594 46.1640303,22.1683755 46.3328523,22.4120702 C46.504488,22.655765 46.4960469,22.9835923 46.307529,23.2911119 Z M47.5793215,21.4634016 C47.3260884,21.1065629 46.9518663,20.7091085 46.5692031,20.3928856 L46.1977947,20.0882672 C44.796572,18.9394207 43.3897219,17.784772 41.9491075,16.6823436 C41.4173181,16.2790869 40.8292548,15.8584234 40.142712,15.5509039 C39.4843061,15.2549889 38.744303,15.0461078 38.0014861,14.9416672 C36.3920497,14.709577 34.9007886,14.5906308 33.1759904,14.4571789 C32.9762177,14.4252665 32.6835929,14.3730462 32.3009296,14.4020575 C31.7381896,14.436871 31.1867044,14.6602578 30.7590219,15.0345033 C30.5789451,15.1911641 30.3032025,15.43776 30.120312,15.6176299 L29.8051776,15.916446 C29.6729337,16.0353922 29.5435035,16.1572396 29.4197007,16.2790869 L28.4292782,16.2210644 C27.8074505,16.1862508 27.1884365,16.099217 26.5018936,15.9947764 C26.1614359,15.9425561 25.8125371,15.9019404 25.4889616,15.7916975 C25.1006709,15.6582457 24.7292625,15.4667712 24.3550404,15.2810991 L23.8176237,14.9764807 C23.4799797,14.709577 23.1338945,14.4426733 22.8412697,14.1322526 C22.5739682,13.8479422 22.3573133,13.5607305 22.1969324,13.2793212 C21.6229376,12.2697288 21.1080304,11.2137185 20.6268877,10.1519058 C20.4974575,9.87339761 20.4074191,9.61519727 20.3511451,9.46433865 C20.5874959,9.19163267 20.8463563,8.78837596 20.9842276,8.21975499 C21.1052167,7.80199265 21.2768524,6.72277325 20.2414108,5.71898317 C17.2617023,2.80915238 15.7394905,1.35278643 15.134545,0.929221827 C14.628079,0.578185411 14.0906623,0.38961213 13.7333223,0.279369289 C13.2831303,0.140115173 12.8132424,0.0501802237 12.3377271,0.0182678223 C11.8650254,-0.0194468339 11.3866964,0.00376218528 10.9252496,0.0646858608 C10.5144494,0.116906154 9.95170933,0.189434339 9.3664597,0.430227914 C9.01474718,0.575284284 8.68273056,0.775462075 8.35915504,0.987244375 C8.24942074,1.05687143 8.14250013,1.13230075 8.02995213,1.18742217 C7.87801232,1.25995035 7.72607251,1.31217064 7.5741327,1.34408305 C7.5262998,1.35278643 7.41656549,1.36729206 7.17740098,1.35278643 C6.94105017,1.30926952 6.54431845,1.23964246 6.08005792,1.30926952 C5.26127118,1.43111687 4.50157214,1.98813333 4.09921301,2.75983322 C3.8797444,3.17179331 3.70248129,3.6156658 3.52521818,4.06534055 C3.40422908,4.37286005 3.28605367,4.68908294 3.12848646,4.97919568 C2.98780145,5.24319828 2.79928354,5.4781896 2.61639303,5.71898317 C2.39692442,6.00909591 2.17464211,6.30501091 1.912968,6.71987212 C1.62034318,7.17825025 1.28832656,7.70335431 1.04353465,8.3474046 C0.703076932,9.24675409 0.402011016,10.2447419 0.0981313992,11.4951278 C-0.0481810087,12.1014635 -0.00316180627,12.6642822 0.0559258969,13.0182197 C0.160032803,13.6448632 0.466726119,14.0626256 0.601783726,14.2482977 C0.750909834,14.4629812 0.908477043,14.6689612 1.06323055,14.8749413 L1.60908838,15.6002231 C1.78072409,15.826511 1.9551735,16.0498979 2.17745581,16.5111771 C2.15775991,16.6736402 2.11836811,16.8012899 2.0311434,16.9115327 L1.71038159,17.3379984 C1.59220618,17.4917582 1.41212937,17.7267495 1.26300326,18.0429724 C0.953496245,18.6899238 0.874712641,19.3252707 1.02665245,19.9432108 C1.19547446,20.6133713 1.64003908,21.2400148 2.21966131,21.6229636 C2.69236294,21.9304831 3.21289747,22.1886834 3.73061829,22.4410815 L4.04575271,22.5948413 C4.39183783,22.7660078 4.74636405,22.9197675 5.10933137,23.0648239 C6.04629352,23.4361682 6.98888307,23.8046114 7.93147262,24.1469444 C8.22972484,24.2571873 8.53923185,24.34132 8.85436627,24.410947 L9.3889693,24.5327944 C10.4075288,24.7619834 11.4289019,24.9911725 12.4502751,25.1768447 C12.8273109,25.2464717 13.2071604,25.2841864 13.5898236,25.3160988 L14.4423748,25.411836 C14.5408543,25.4437484 14.6505886,25.4669574 14.6871667,25.4785619 C14.740627,25.5162766 14.7856462,25.5539912 14.8278517,25.5888048 C14.8278517,26.4620441 15.0810847,27.1728203 15.5791096,27.7037266 C16.2262607,28.3999972 16.9803323,28.4928333 17.151968,28.5102401 C18.0523521,28.69011 18.9527361,28.8525731 19.8587476,29.0121351 L30.6042684,30.9587916 C31.5637402,31.1357604 32.5232119,31.309828 33.4826837,31.4635877 C34.0482374,31.5535227 34.625046,31.628952 35.2046682,31.6608644 C35.272197,31.6666667 35.3369121,31.6666667 35.4016272,31.6666667 C35.8208685,31.6666667 36.2119728,31.5970396 36.5664991,31.4548844 C37.0673377,31.2576077 37.3768447,30.9297803 37.4809516,30.8253397 C37.6328914,30.7150969 37.8833107,30.5265236 38.1252889,30.2422131 C38.4319823,29.8795722 38.6430098,29.4327986 38.7414893,28.9483103 C39.3717581,29.261632 40.0048406,29.5662504 40.6463643,29.8389564 C41.2259865,30.0855522 41.8815786,30.1580804 42.5034064,30.0391342 C43.004245,29.9404959 43.7245522,29.7084057 44.3041745,29.1658948 C44.7515528,28.7481325 45.0413639,28.2694465 45.3958901,27.6834187 C46.1893536,26.4620441 46.8646416,25.3799236 47.6158996,24.1411422 L48.4375,22.6470616 L47.5793215,21.4634016 Z" id="Fill-3"></path>
                            <polygon id="Fill-5" points="22.5 30.592581 22.1438263 31.6666667 18.75 30.4"></polygon>
                        </g>
                    </g>
                </g>
            </g>
        </g>
    </g>
</svg>